<?xml version="1.0" encoding="UTF-8" standalone="no"?>
<!-- Created with Inkscape (http://www.inkscape.org/) -->

<svg
   xmlns:dc="http://purl.org/dc/elements/1.1/"
   xmlns:cc="http://creativecommons.org/ns#"
   xmlns:rdf="http://www.w3.org/1999/02/22-rdf-syntax-ns#"
   xmlns:svg="http://www.w3.org/2000/svg"
   xmlns="http://www.w3.org/2000/svg"
   xmlns:sodipodi="http://sodipodi.sourceforge.net/DTD/sodipodi-0.dtd"
   xmlns:inkscape="http://www.inkscape.org/namespaces/inkscape"
   width="210mm"
   height="297mm"
   viewBox="0 0 744.09448819 1052.3622047"
   id="svg2"
   version="1.1"
   inkscape:version="0.91 r13725"
   sodipodi:docname="ewma logo.svg">
  <defs
     id="defs4" />
  <sodipodi:namedview
     id="base"
     pagecolor="#ffffff"
     bordercolor="#666666"
     borderopacity="1.0"
     inkscape:pageopacity="0.0"
     inkscape:pageshadow="2"
     inkscape:zoom="0.19914173"
     inkscape:cx="-1521.4845"
     inkscape:cy="671.37412"
     inkscape:document-units="px"
     inkscape:current-layer="layer1"
     showgrid="false"
     showborder="false"
     inkscape:window-width="1366"
     inkscape:window-height="705"
     inkscape:window-x="-8"
     inkscape:window-y="-8"
     inkscape:window-maximized="1"
     showguides="false"
     inkscape:guide-bbox="true">
    <inkscape:grid
       type="xygrid"
       id="grid8070" />
    <sodipodi:guide
       position="-1558.2797,146.86662"
       orientation="0,1"
       id="guide8072" />
    <sodipodi:guide
       position="-1416.3916,480.4281"
       orientation="0,1"
       id="guide8074" />
  </sodipodi:namedview>
  <metadata
     id="metadata7">
    <rdf:RDF>
      <cc:Work
         rdf:about="">
        <dc:format>image/svg+xml</dc:format>
        <dc:type
           rdf:resource="http://purl.org/dc/dcmitype/StillImage" />
        <dc:title></dc:title>
      </cc:Work>
    </rdf:RDF>
  </metadata>
  <g
     inkscape:label="Layer 1"
     inkscape:groupmode="layer"
     id="layer1">
    <path
       style="fill:#1e905c;fill-opacity:0.93690856;fill-rule:evenodd;stroke:#000000;stroke-width:1px;stroke-linecap:butt;stroke-linejoin:miter;stroke-opacity:1"
       d="m -1508.5054,472.04069 -37.3398,32.36133 c 0,0 4.9795,17.42478 -7.4668,24.89257 -12.4463,7.46779 -4.9785,29.8711 -4.9785,29.8711 0,0 -4.9786,19.91403 -4.9786,29.87109 0,9.95706 7.4668,59.74219 7.4668,59.74219 l 12.4473,29.87109 4.9785,34.84961 0,34.84961 -7.4687,34.84961 -9.9571,19.91406 -14.9355,17.42578 -24.8926,4.97852 -12.4473,-17.42578 -19.914,-29.8711 -4.9786,-42.31835 4.9786,-22.40235 -17.4239,39.82813 -17.4257,22.40429 -17.4239,34.84961 -32.3613,17.42383 -42.3164,4.97852 -22.4043,-17.42383 -12.4453,-27.38281 27.3808,-32.35938 32.3614,-34.85156 44.8066,-44.80664 27.3809,-39.82813 29.8711,-37.33789 19.914,-27.38281 2.4903,-14.93555 4.9785,-19.91406 -7.4688,17.42578 -19.914,24.89258 -19.9141,19.91406 -34.8496,34.84961 -29.8711,24.89258 -27.3809,24.89258 -19.914,22.40234 -27.3828,24.89258 -12.3848,14.44922 c 2.0271,-4.24417 3.3887,-7.23242 3.3887,-7.23242 0,0 30.4707,-89.06418 30.4707,-106.20703 0,-17.14286 -16.2696,28.18945 -16.2696,28.18945 l -11.4297,31.42969 c 0,0 -5.7139,19.99971 -17.1425,37.14257 -11.4286,17.14286 -17.1421,25.71428 -31.4278,40 -14.2857,14.28571 -19.7207,18.76172 -19.7207,18.76172 -21.7873,12.61252 -38.9843,23.80203 -60.1953,31.91993 -20.3205,7.7771 -41.5936,15.32456 -63.3476,15.73632 -24.8833,0.47099 -53.0918,-6.67271 -73.0918,-15.24414 -20,-8.57143 -21.5853,-23.90243 -23.7715,-38.95703 -1.7711,-12.19655 5.3821,-24.11334 9.4863,-35.73437 4.4341,-12.55502 5.0107,-19.25468 16.2695,-36.48243 12.5043,-19.13354 25.502,-37.09961 25.502,-37.09961 8.2918,-12.14628 19.9458,-22.88084 31.4707,-32.66796 8.1801,-6.94669 17.0113,-13.26772 26.498,-18.28516 9.7616,-5.16288 20.1414,-9.45959 30.9004,-11.94727 32.5956,-7.53669 62.8572,-8.57226 100,-8.57226 37.1429,0 25.7129,8.57226 25.7129,8.57226 l -28.5703,37.14258 c 0,0 -22.8094,26.73271 -34.9902,39.38086 -5.7152,5.93442 -11.2369,12.18188 -17.8457,17.10156 -10.0797,7.50336 -21.5942,12.89205 -32.793,18.5918 -15.8716,8.07804 -33.57,12.60429 -48.6562,22.06836 -6.3011,3.95287 -19.6768,7.29306 -17.1446,14.28711 0.9727,2.68648 5.7206,0.17479 8.5723,0 5.9825,-0.36667 11.9272,-1.25081 17.8457,-2.19727 9.793,-1.56606 19.6665,-2.99285 29.1914,-5.75585 10.0812,-2.92441 19.9437,-6.74684 29.3594,-11.38672 10.2558,-5.05387 19.9738,-11.21667 29.3183,-17.80469 13.5032,-9.51993 18.4649,-14.11495 38.4649,-31.25781 20,-17.14286 15.8198,-11.59905 30.1054,-25.88477 14.2859,-14.28571 25.7149,-22.85742 25.7149,-22.85742 l 9.8516,-14.98828 13.4961,-19.87305 c 0,0 8.3499,-14.4228 10.9374,-22.28125 3.3303,-10.11379 14.2333,-25.03896 5.7149,-31.42773 -5.111,-3.83326 -11.2864,6.0166 -17.1426,8.57031 -7.4588,3.25256 -14.9331,6.72336 -22.8574,8.57226 -9.3209,2.17477 -19.0129,2.38065 -28.5723,2.85743 -9.512,0.47442 -19.0465,0 -28.5703,0 -12.381,0 -24.7765,-0.60705 -37.1426,0 -7.1758,0.35226 -14.3282,1.17266 -21.4511,2.11132 -8.8065,1.16053 -17.5868,2.56853 -26.2891,4.34961 -14.6873,3.00602 -29.3984,6.15187 -43.6895,10.68164 -8.0282,2.54469 -15.7902,5.88328 -23.5175,9.23243 -9.7335,4.21866 -19.7255,8.0788 -28.7422,13.66796 -13.0831,8.10991 -26.1169,16.99356 -36.3106,28.52735 -10.4234,11.79375 -17.2684,26.3964 -24.3886,40.43359 -8.3348,16.43188 -21.3262,50.9961 -21.3262,50.9961 0,0 -6.1733,23.75757 -10.6406,35.1582 -3.1753,8.10343 -7.248,15.84261 -11.4278,23.47656 -4.5703,8.34705 -7.7855,18.02915 -14.8945,24.35547 -11.8035,10.50391 -25.8942,25.58148 -43.0371,19.86719 -5.7143,-1.90476 11.3752,3.97537 17.1426,5.71289 16.5918,4.99857 33.466,9.00974 50.1914,13.54101 20.198,5.47206 40.5761,10.76619 60.5761,16.48047 20,5.71429 64.4643,8.86448 95.8633,2.85743 28.3352,-5.4209 54.5839,-19.69654 79.4473,-34.32813 15.8376,-9.32013 30.5563,-20.77135 43.6894,-33.625 1.9982,-1.95564 3.9308,-3.97847 5.8321,-6.0332 l -2.0176,9.07617 9.957,14.93555 17.4258,19.91406 32.3594,24.89258 32.3613,9.95703 39.8281,-4.97852 24.8926,-24.89258 22.4024,-37.33789 9.957,-14.93554 2.4902,14.93554 9.9571,34.84961 9.957,19.91406 32.3594,14.93555 32.3613,-4.97851 24.8926,-24.89258 22.4043,-29.8711 14.834,-48.21093 3.3515,32.67578 -7.5976,51.77929 -5.2578,26.87305 -12.5879,25.4375 -29.209,19.64844 42.8574,-24.58594 c 0,0 -1.5394,-18.05757 12.1094,-22.99609 13.6488,-4.93852 10.623,-28.35938 10.623,-28.35938 0,0 8.7109,-18.58571 10.6231,-28.35742 1.9122,-9.77172 4.1445,-60.06445 4.1445,-60.06445 l -6.4785,-31.70703 1.8066,-35.15625 6.6934,-34.20117 14.0215,-32.76758 13.5957,-17.63086 18.0039,-14.23242 25.3848,-0.10547 8.8691,19.49218 13.8066,33.13868 -3.2402,42.48632 -9.1894,21.0293 24.75,-35.74023 21.4023,-18.63868 23.793,-30.85546 35.1054,-10.88672 42.4864,3.24218 18.6386,21.40235 6.9571,29.26367 -33.0879,26.49805 -38.4512,27.98633 -52.5762,35.36914 -34.5214,33.82812 -36.4864,30.90625 -24.8027,23.04883 -5.3106,14.17969 -8.7109,18.58593 10.6758,-15.66601 24.3242,-20.60352 23.3672,-15.7207 40.8945,-27.50781 34.0957,-18.69141 31.6524,-19.17187 23.8457,-18.16211 14.6093,-8.84766 -24.1093,27.55469 -20.0489,23.86719 c -8.9152,18.10666 -10.6558,14.23693 -13.873,49.4375 0,0 2.4679,15.10009 11.6914,21.98437 l 11.4434,7.50586 11.6367,6.52148 29.4277,3.41407 37.7051,-3.9961 87.1211,-17.39062 c 0,0 27.6726,-6.71697 41.4629,-10.25781 17.7279,-4.55189 34.9726,-11.3254 53.0605,-14.12305 14.2869,-2.20974 28.88129,-2.65911 43.32425,-2.02735 15.46407,0.67643 31.2745,1.49734 46.01758,6.2129 14.30072,4.57407 25.96684,15.27757 39.84961,20.99609 10.36656,4.27014 21.24123,7.31695 32.16797,9.82812 10.54882,2.42432 21.26292,5.40091 32.08008,5.02149 11.06728,-0.3882 31.94497,3.6416 32.38281,-7.42383 0.54902,-13.87529 -27.70515,-5.56673 -39.74219,-12.49023 -10.69179,-6.14974 -19.8904,-15.10501 -27.33984,-24.93555 -8.96859,-11.83527 -20,-39.80664 -20,-39.80664 l -17.70313,-37.1875 -11.38476,-41.08399 -31.32032,-49.80664 -44.87109,-26.04101 -59.39847,-5.04297 -51.9746,7.48828 -36.082,14.97852 -37.3242,25.24023 6.5234,-14.92969 -6.9043,-16.57031 -13.2754,-22.88867 -26.9785,-30.64453 -29.8457,-15.98633 -40.043,-2.76367 -29.209,19.64843 -29.1582,32.3418 -12.6386,12.7461 0.4238,-15.13672 -3.0781,-36.11328 -5.9473,-21.45508 -28.8906,-20.87305 -32.7129,-1.32812 -29.2109,19.64843 -27.7227,25.01368 -31.9727,59.6914 0.1563,37.67383 -10.9981,-23.83008 -17.4238,-57.25195 -2.4902,-52.27539 0,-27.38086 7.4687,-27.38281 24.8926,-24.89258 z m 486.6192,231.32422 7.5332,0 40.17184,7.53125 30.1289,22.59765 7.53321,12.55274 5.02148,17.57617 2.50977,15.06445 -12.55274,-2.50976 -45.19531,-2.51172 -42.68165,7.5332 -50.2168,5.02148 -55.2363,15.06446 -75.3242,15.06445 -27.6172,10.04297 -25.1075,0 10.043,-12.55469 15.0645,-22.5957 15.0644,-17.57617 22.5957,-12.55274 60.2598,-27.61914 40.1719,-15.06445 27.6191,-10.04297 50.2149,-5.02148 z"
       id="path8082"
       inkscape:connector-curvature="0"
       inkscape:export-xdpi="89.800003"
       inkscape:export-ydpi="89.800003" />
    <path
       style="opacity:1;fill:#008000;fill-opacity:0.93690856;stroke:none;stroke-width:9.22099972;stroke-linejoin:round;stroke-miterlimit:4;stroke-dasharray:none;stroke-dashoffset:0;stroke-opacity:0.98039216"
       id="path8118"
       sodipodi:type="arc"
       sodipodi:cx="-2942.6279"
       sodipodi:cy="-32.292446"
       sodipodi:rx="537.30579"
       sodipodi:ry="537.30579"
       sodipodi:start="0"
       sodipodi:end="6.2830282"
       sodipodi:open="true"
       d="m -2405.3221,-32.292446 a 537.30579,537.30579 0 0 1 -537.2847,537.305786 537.30579,537.30579 0 0 1 -537.3269,-537.263579 537.30579,537.30579 0 0 1 537.2425,-537.347991 537.30579,537.30579 0 0 1 537.369,537.221369" />
  </g>
</svg>
